<svg xmlns="http://www.w3.org/2000/svg" class="lw-contents-svg small" data-icon="survey" viewBox="0 0 30 30"><g fill="none" stroke="currentColor" stroke-linecap="round" stroke-linejoin="round"><path stroke-width="1.6" d="M15.62 7.82v17.5"/><path stroke-width="1.2" d="M6.88 9.69a17.74 17.74 0 0 1 3.12.63 18 18 0 0 1 3.12 1.25m0 7.8A18.85 18.85 0 0 0 10 18.12a18.58 18.58 0 0 0-3.12-.62"/><path stroke-width="1.6" d="M15.62 7.82a19.37 19.37 0 0 1 11.26-3.13v17.5a19.37 19.37 0 0 0-11.26 3.13 19.31 19.31 0 0 0-11.24-3.13V4.69a19.31 19.31 0 0 1 11.24 3.13z"/><path stroke-width="1.2" d="M18.12 11.57a18.48 18.48 0 0 1 3.13-1.25 17.66 17.66 0 0 1 3.13-.63m0 7.81a18.48 18.48 0 0 0-3.13.62 19.36 19.36 0 0 0-3.13 1.25m-5-3.75A18.85 18.85 0 0 0 10 14.37a18.58 18.58 0 0 0-3.12-.62m17.5 0a18.48 18.48 0 0 0-3.13.62 19.36 19.36 0 0 0-3.13 1.25"/></g></svg>